<svg width="128" height="128" viewBox="0 0 128 128" fill="none" xmlns="http://www.w3.org/2000/svg">
  <rect width="128" height="128" rx="26" fill="#FFFFFF"/>
  <path d="M64 19C39.2 19 19 39.7 19 65.1C19 85.4 31.8 102.6 49.6 108.7C51.8 109.1 52.5 107.8 52.5 106.7C52.5 105.7 52.4 102.4 52.4 98C40.5 100.6 38 92.1 38 92.1C36.1 87.1 33.2 85.8 33.2 85.8C29.3 83 33.5 83.1 33.5 83.1C37.8 83.4 40.1 87.7 40.1 87.7C43.9 94.4 50.1 92.5 52.7 91.4C53.1 88.6 54.2 86.6 55.4 85.5C45.9 84.4 35.9 80.7 35.9 63.9C35.9 59.1 37.6 55.2 40.4 52.1C39.9 51 38.4 46.5 40.8 40.5C40.8 40.5 44.5 39.3 52.4 44.7C55.8 43.7 59.5 43.3 63.2 43.3C66.9 43.3 70.6 43.7 74 44.7C81.9 39.3 85.6 40.5 85.6 40.5C88 46.5 86.5 51 86 52.1C88.8 55.2 90.5 59.1 90.5 63.9C90.5 80.8 80.4 84.4 70.9 85.5C72.4 86.9 73.6 89.6 73.6 93.8C73.6 99.8 73.5 104.7 73.5 106.7C73.5 107.9 74.2 109.1 76.4 108.7C94.2 102.6 107 85.4 107 65.1C107 39.7 86.8 19 62 19H64Z" fill="#111111"/>
</svg>
